<?xml version="1.0" encoding="utf-8" ?>
<svg xmlns="http://www.w3.org/2000/svg" xmlns:xlink="http://www.w3.org/1999/xlink" width="699" height="644">
	<path fill="currentColor" transform="scale(2.9009 2.9009)" d="M0 0L221.328 0L228.962 0L240.562 0C241.3 1.17559 241.281 12.3785 240.904 14.1588C240.857 14.3817 240.777 14.5934 240.683 14.8004C241.194 15.9633 241.355 28.8581 240.78 30.1898C240.727 30.3105 240.705 30.3441 240.645 30.448C240.945 31.128 240.979 31.6927 240.992 32.4275C241.258 47.7223 241.007 63.0709 241.007 78.3711L241 169.096C241 175.452 241.4 220.001 240.824 221.517C240.758 221.69 240.666 221.847 240.562 222L131.916 222L123.335 222L0 222L0 58.192L0 44.309L0 0ZM0 0L0 44.309C1.08468 41.9098 0.948773 38.9384 2.02341 36.4173C3.67461 32.5436 6.11408 29.6283 10.0814 28.0471C16.8447 25.3515 24.5856 26.9739 31.0385 29.7324C58.5475 41.4919 86.3578 79.7055 100.812 105.323Q108.576 118.921 114.294 133.498Q114.382 133.211 114.475 132.925C117.05 125.092 121.078 117.429 124.813 110.07C140.225 79.7026 159.877 49.1694 183.951 24.9311C188.392 20.4589 192.959 16.0018 197.983 12.1755C202.803 8.50365 208.067 4.92891 213.707 2.65009C216.076 1.69302 218.956 1.23602 221.189 0.0739775C221.236 0.0497821 221.282 0.0246592 221.328 0L0 0ZM227.33 5.37311C209.176 7.3073 187.422 32.7775 176.402 46.4209C150.733 78.2034 128.461 115.77 115.416 154.569C111 167.702 106.881 183.029 108.376 197.018C109.002 202.88 110.981 209.212 115.749 213.041C116.47 213.62 117.322 214.33 118.152 214.739C121.363 216.564 125.1 216.794 128.628 215.826C150.379 209.86 176.293 167.76 187.249 148.349Q198.183 128.752 207.39 108.287Q216.597 87.8212 224.008 66.6392C228.504 53.792 232.794 40.5136 234.947 27.0461C235.728 22.1586 236.874 15.726 235.54 10.8585C235.034 9.0109 234.048 7.39957 232.356 6.4269C230.882 5.5794 229.01 5.3319 227.33 5.37311ZM131.916 222L240.562 222C240.666 221.847 240.758 221.69 240.824 221.517C241.4 220.001 241 175.452 241 169.096L241.007 78.3711C241.007 63.0709 241.258 47.7223 240.992 32.4275C240.979 31.6927 240.945 31.128 240.645 30.448C235.467 79.7158 188.939 180.63 150.253 211.991C146.721 214.854 142.577 217.856 138.38 219.649C136.668 220.381 133.262 221.038 131.916 222ZM0 58.192L0 222L123.335 222C119.176 220.514 115.329 218.675 112.02 215.689C107.546 211.651 102.974 204.347 102.674 198.211C101.398 198.909 100.03 199.549 98.6599 200.036C91.636 202.531 84.4647 201.257 77.8599 198.09C45.1506 182.407 16.9008 121.735 6.63643 88.3124Q3.75019 79.0075 1.8923 69.4441C1.30294 66.2779 1.1173 61.2176 0.0730765 58.3833C0.0494768 58.3193 0.0243588 58.2558 0 58.192ZM29.3517 48.5448C26.3348 49.3887 23.3832 50.61 21.7434 53.4748C16.5593 62.5317 20.7866 79.8627 23.5192 89.4169C30.6683 114.413 54.342 164.208 77.5426 177.126C80.9774 179.038 85.1014 180.41 89.0269 179.292C90.0132 179.01 90.9006 178.489 91.778 177.971C96.7352 175.144 99.9386 171.132 101.438 165.599C106.9 145.436 94.1271 116.165 84.1235 98.8462C74.8821 82.8472 55.2026 54.1155 36.2925 49.0446C33.9292 48.4108 31.7882 48.3712 29.3517 48.5448ZM101.258 188.405C101.159 185.491 101.131 182.773 101.827 179.913C98.3188 183.191 93.606 185.496 88.7168 185.349C78.9081 185.053 69.2204 177.359 62.7818 170.459Q54.1569 161.337 47.1565 150.917C31.9425 128.431 11.792 87.123 12.7142 59.9658C12.874 55.2572 13.9441 49.9095 17.5411 46.5585C20.7625 43.5572 25.431 42.5258 29.7229 42.7087C43.2527 43.2854 57.211 56.3656 65.8842 65.8687C84.6398 86.4189 104.699 120.452 108.507 148.373C109.183 146.518 109.751 144.506 110.591 142.725C109.128 137.752 107.493 133.021 105.663 128.183C93.4537 99.6834 74.408 70.2179 51.5329 49.2309C45.5066 43.7021 38.7215 38.0884 31.0498 35.0101C26.2082 33.0673 20.6705 32.0158 15.7058 34.1788C12.6633 35.5043 10.6044 38.0588 9.42533 41.1055C1.7704 60.8857 17.5404 103.519 25.9436 122.32C35.4667 143.627 57.6385 184.696 80.2627 193.375C84.697 195.076 89.7757 195.527 94.1838 193.526C96.7029 192.382 99.4673 190.517 101.258 188.405ZM101.827 179.913C101.983 179.788 102.123 179.658 102.256 179.508C109.543 171.289 109.485 160.311 108.712 150.025L108.307 150.183C105.728 154.886 102.208 173.78 101.827 179.913ZM228.962 0C233.232 1.53504 236.755 3.25388 238.772 7.57943C239.767 9.71306 240.491 12.4538 240.683 14.8004C240.777 14.5934 240.857 14.3817 240.904 14.1588C241.281 12.3785 241.3 1.17559 240.562 0L228.962 0Z"/>
	<path fill="currentColor" transform="scale(2.9009 2.9009)" d="M30.5719 52.8884C33.1007 52.6672 35.4951 52.8732 37.9368 53.5701C54.7051 58.3561 68.4501 78.1478 76.5291 92.6315C84.5219 106.961 95.1012 131.555 90.3284 148.153C88.8103 153.433 86.0004 156.721 81.2529 159.347C80.7097 159.543 80.1589 159.734 79.5991 159.878C75.1365 161.024 70.0499 159.166 66.2568 156.883C46.1332 144.773 29.2091 105.505 23.7927 83.6519C22.0319 76.5477 19.2899 63.4795 23.2735 57.0458C24.9578 54.3254 27.6624 53.575 30.5719 52.8884ZM34.3617 58.5473C32.3026 59.0918 30.6804 59.5351 29.5204 61.4885C25.9643 67.4772 29.2758 81.9556 31.0582 88.5548C35.9538 106.681 51.496 143.548 67.9521 152.921C70.2068 154.205 72.9718 155.136 75.5634 154.429C76.3948 154.202 77.1023 153.733 77.77 153.204C82.0546 149.791 83.8704 145.473 84.4717 140.094C86.7442 119.761 71.6394 90.2491 59.2395 74.805C54.0255 68.3109 45.6171 59.3776 36.9612 58.5019C36.0954 58.4143 35.2263 58.4756 34.3617 58.5473Z"/>
	<path fill="currentColor" transform="scale(2.9009 2.9009)" d="M195.848 46.5541Q196.547 46.4739 197.251 46.4463C200.531 46.3369 204.295 47.3579 206.701 49.6805C209.994 52.8599 210.463 58.2265 210.536 62.5371C211.134 98.0063 169.964 175.194 145.644 200.363C140.258 205.937 133.008 211.76 124.925 211.891C122.161 211.685 119.567 211.018 117.204 209.523C113.277 207.037 111.247 202.85 110.262 198.43C104.049 170.558 132.803 117.587 147.791 93.9375C156.038 80.9249 170.971 59.7549 183.896 51.4213C187.622 49.0188 191.547 47.5163 195.848 46.5541ZM199.94 52.3225C188.875 53.878 173.166 73.5524 166.79 82.0219C147.475 107.681 127.315 145.393 118.952 176.366C117.013 183.546 115.022 191.832 116.097 199.293C116.426 201.573 117.298 204.052 119.211 205.473C119.958 206.028 120.929 206.276 121.837 206.429C123.004 206.147 124.234 205.892 125.328 205.387C138.72 199.201 155.047 174.723 162.571 162.412Q170.835 148.773 178.006 134.529Q185.177 120.285 191.211 105.523C195.953 94.1452 200.494 82.4163 203.454 70.4451C204.506 66.19 206.228 59.4751 205.221 55.2056C204.983 54.1979 204.544 53.2316 203.634 52.667C202.639 52.0492 201.049 52.0602 199.94 52.3225Z"/>
</svg>
